<svg width="16" height="16" viewBox="0 0 16 16" fill="none" xmlns="http://www.w3.org/2000/svg">
<path fill-rule="evenodd" clip-rule="evenodd" d="M11.9997 7.33337C11.9997 9.91071 9.91034 12 7.33301 12C4.75568 12 2.66634 9.91071 2.66634 7.33337C2.66634 4.75605 4.75568 2.66671 7.33301 2.66671C9.91034 2.66671 11.9997 4.75605 11.9997 7.33337ZM12.0209 11.0785C12.842 10.052 13.333 8.75004 13.333 7.33337C13.333 4.01967 10.6467 1.33337 7.33301 1.33337C4.0193 1.33337 1.33301 4.01967 1.33301 7.33337C1.33301 10.6471 4.0193 13.3334 7.33301 13.3334C8.74967 13.3334 10.0517 12.8424 11.0781 12.0213L12.8616 13.8048C13.1219 14.0651 13.5441 14.0651 13.8044 13.8048C14.0647 13.5444 14.0647 13.1223 13.8044 12.862L12.0209 11.0785Z" fill="#302E45"/>
</svg>
